<svg xmlns="http://www.w3.org/2000/svg" xmlns:xlink="http://www.w3.org/1999/xlink" width="1200" zoomAndPan="magnify" viewBox="0 0 900 299.999988" height="400" preserveAspectRatio="xMidYMid meet" version="1.0"><defs><g/></defs><g fill="#ff00ff" fill-opacity="1"><g transform="translate(-1.905502, 222.28884)"><g><path d="M 165.46875 -161.765625 L 165.46875 0 L 140.734375 0 L 51.53125 -109.53125 L 51.53125 0 L 21.71875 0 L 21.71875 -161.765625 L 46.453125 -161.765625 L 135.65625 -52.234375 L 135.65625 -161.765625 Z M 165.46875 -161.765625 "/></g></g></g><g fill="#ff00ff" fill-opacity="1"><g transform="translate(164.457815, 222.28884)"><g><path d="M 134.953125 -61.015625 C 134.953125 -59.003906 134.800781 -56.148438 134.5 -52.453125 L 37.671875 -52.453125 C 39.359375 -43.367188 43.785156 -36.164062 50.953125 -30.84375 C 58.117188 -25.53125 67.015625 -22.875 77.640625 -22.875 C 91.203125 -22.875 102.375 -27.34375 111.15625 -36.28125 L 126.640625 -18.484375 C 121.085938 -11.859375 114.078125 -6.847656 105.609375 -3.453125 C 97.140625 -0.0664062 87.585938 1.625 76.953125 1.625 C 63.398438 1.625 51.460938 -1.070312 41.140625 -6.46875 C 30.816406 -11.863281 22.84375 -19.375 17.21875 -29 C 11.59375 -38.632812 8.78125 -49.535156 8.78125 -61.703125 C 8.78125 -73.722656 11.515625 -84.546875 16.984375 -94.171875 C 22.453125 -103.796875 30.039062 -111.304688 39.75 -116.703125 C 49.457031 -122.097656 60.394531 -124.796875 72.5625 -124.796875 C 84.582031 -124.796875 95.328125 -122.132812 104.796875 -116.8125 C 114.273438 -111.5 121.671875 -104.023438 126.984375 -94.390625 C 132.296875 -84.765625 134.953125 -73.640625 134.953125 -61.015625 Z M 72.5625 -101.6875 C 63.320312 -101.6875 55.503906 -98.953125 49.109375 -93.484375 C 42.710938 -88.015625 38.820312 -80.734375 37.4375 -71.640625 L 107.453125 -71.640625 C 106.222656 -80.578125 102.445312 -87.816406 96.125 -93.359375 C 89.8125 -98.910156 81.957031 -101.6875 72.5625 -101.6875 Z M 72.5625 -101.6875 "/></g></g></g><g fill="#ff00ff" fill-opacity="1"><g transform="translate(287.380909, 222.28884)"><g><path d="M 74.40625 1.625 C 61.925781 1.625 50.679688 -1.070312 40.671875 -6.46875 C 30.660156 -11.863281 22.84375 -19.375 17.21875 -29 C 11.59375 -38.632812 8.78125 -49.535156 8.78125 -61.703125 C 8.78125 -73.867188 11.59375 -84.726562 17.21875 -94.28125 C 22.84375 -103.832031 30.660156 -111.304688 40.671875 -116.703125 C 50.679688 -122.097656 61.925781 -124.796875 74.40625 -124.796875 C 87.039062 -124.796875 98.363281 -122.097656 108.375 -116.703125 C 118.394531 -111.304688 126.21875 -103.832031 131.84375 -94.28125 C 137.46875 -84.726562 140.28125 -73.867188 140.28125 -61.703125 C 140.28125 -49.535156 137.46875 -38.632812 131.84375 -29 C 126.21875 -19.375 118.394531 -11.863281 108.375 -6.46875 C 98.363281 -1.070312 87.039062 1.625 74.40625 1.625 Z M 74.40625 -23.109375 C 85.039062 -23.109375 93.820312 -26.648438 100.75 -33.734375 C 107.6875 -40.828125 111.15625 -50.148438 111.15625 -61.703125 C 111.15625 -73.253906 107.6875 -82.570312 100.75 -89.65625 C 93.820312 -96.75 85.039062 -100.296875 74.40625 -100.296875 C 63.78125 -100.296875 55.039062 -96.75 48.1875 -89.65625 C 41.332031 -82.570312 37.90625 -73.253906 37.90625 -61.703125 C 37.90625 -50.148438 41.332031 -40.828125 48.1875 -33.734375 C 55.039062 -26.648438 63.78125 -23.109375 74.40625 -23.109375 Z M 74.40625 -23.109375 "/></g></g></g><g fill="#ff00ff" fill-opacity="1"><g transform="translate(415.618488, 222.28884)"><g><path d="M 174.703125 -124.796875 C 190.265625 -124.796875 202.585938 -120.285156 211.671875 -111.265625 C 220.765625 -102.253906 225.3125 -88.738281 225.3125 -70.71875 L 225.3125 0 L 196.421875 0 L 196.421875 -67.015625 C 196.421875 -77.796875 194.035156 -85.921875 189.265625 -91.390625 C 184.492188 -96.859375 177.640625 -99.59375 168.703125 -99.59375 C 158.992188 -99.59375 151.210938 -96.394531 145.359375 -90 C 139.503906 -83.613281 136.578125 -74.488281 136.578125 -62.625 L 136.578125 0 L 107.6875 0 L 107.6875 -67.015625 C 107.6875 -77.796875 105.296875 -85.921875 100.515625 -91.390625 C 95.742188 -96.859375 88.890625 -99.59375 79.953125 -99.59375 C 70.097656 -99.59375 62.28125 -96.4375 56.5 -90.125 C 50.726562 -83.8125 47.84375 -74.644531 47.84375 -62.625 L 47.84375 0 L 18.953125 0 L 18.953125 -123.40625 L 46.453125 -123.40625 L 46.453125 -107.6875 C 51.066406 -113.238281 56.84375 -117.476562 63.78125 -120.40625 C 70.71875 -123.332031 78.421875 -124.796875 86.890625 -124.796875 C 96.128906 -124.796875 104.332031 -123.0625 111.5 -119.59375 C 118.664062 -116.125 124.328125 -111 128.484375 -104.21875 C 133.566406 -110.6875 140.113281 -115.734375 148.125 -119.359375 C 156.132812 -122.984375 164.992188 -124.796875 174.703125 -124.796875 Z M 174.703125 -124.796875 "/></g></g></g><g fill="#ff00ff" fill-opacity="1"><g transform="translate(638.130563, 222.28884)"><g><path d="M 66.09375 -124.796875 C 84.269531 -124.796875 98.171875 -120.441406 107.796875 -111.734375 C 117.429688 -103.023438 122.25 -89.890625 122.25 -72.328125 L 122.25 0 L 94.984375 0 L 94.984375 -15.015625 C 91.441406 -9.628906 86.394531 -5.507812 79.84375 -2.65625 C 73.289062 0.195312 65.394531 1.625 56.15625 1.625 C 46.914062 1.625 38.828125 0.046875 31.890625 -3.109375 C 24.953125 -6.273438 19.597656 -10.671875 15.828125 -16.296875 C 12.054688 -21.921875 10.171875 -28.273438 10.171875 -35.359375 C 10.171875 -46.453125 14.289062 -55.347656 22.53125 -62.046875 C 30.769531 -68.742188 43.75 -72.09375 61.46875 -72.09375 L 93.359375 -72.09375 L 93.359375 -73.953125 C 93.359375 -82.578125 90.773438 -89.195312 85.609375 -93.8125 C 80.453125 -98.4375 72.789062 -100.75 62.625 -100.75 C 55.695312 -100.75 48.878906 -99.671875 42.171875 -97.515625 C 35.472656 -95.359375 29.8125 -92.359375 25.1875 -88.515625 L 13.859375 -109.53125 C 20.335938 -114.46875 28.117188 -118.242188 37.203125 -120.859375 C 46.296875 -123.484375 55.925781 -124.796875 66.09375 -124.796875 Z M 62.171875 -19.40625 C 69.410156 -19.40625 75.835938 -21.0625 81.453125 -24.375 C 87.078125 -27.6875 91.046875 -32.425781 93.359375 -38.59375 L 93.359375 -52.921875 L 63.546875 -52.921875 C 46.910156 -52.921875 38.59375 -47.453125 38.59375 -36.515625 C 38.59375 -31.273438 40.671875 -27.113281 44.828125 -24.03125 C 48.992188 -20.945312 54.773438 -19.40625 62.171875 -19.40625 Z M 62.171875 -19.40625 "/></g></g></g><g fill="#ff00ff" fill-opacity="1"><g transform="translate(757.58762, 222.28884)"><g><path d="M 139.8125 -171.46875 L 139.8125 0 L 112.078125 0 L 112.078125 -15.953125 C 107.304688 -10.085938 101.414062 -5.691406 94.40625 -2.765625 C 87.394531 0.160156 79.648438 1.625 71.171875 1.625 C 59.304688 1.625 48.632812 -0.992188 39.15625 -6.234375 C 29.6875 -11.472656 22.253906 -18.90625 16.859375 -28.53125 C 11.472656 -38.164062 8.78125 -49.222656 8.78125 -61.703125 C 8.78125 -74.179688 11.472656 -85.195312 16.859375 -94.75 C 22.253906 -104.300781 29.6875 -111.695312 39.15625 -116.9375 C 48.632812 -122.175781 59.304688 -124.796875 71.171875 -124.796875 C 79.335938 -124.796875 86.8125 -123.40625 93.59375 -120.625 C 100.375 -117.851562 106.148438 -113.695312 110.921875 -108.15625 L 110.921875 -171.46875 Z M 74.640625 -23.109375 C 81.578125 -23.109375 87.816406 -24.6875 93.359375 -27.84375 C 98.910156 -31 103.300781 -35.503906 106.53125 -41.359375 C 109.769531 -47.210938 111.390625 -53.992188 111.390625 -61.703125 C 111.390625 -69.398438 109.769531 -76.175781 106.53125 -82.03125 C 103.300781 -87.882812 98.910156 -92.390625 93.359375 -95.546875 C 87.816406 -98.710938 81.578125 -100.296875 74.640625 -100.296875 C 67.710938 -100.296875 61.472656 -98.710938 55.921875 -95.546875 C 50.378906 -92.390625 45.988281 -87.882812 42.75 -82.03125 C 39.519531 -76.175781 37.90625 -69.398438 37.90625 -61.703125 C 37.90625 -53.992188 39.519531 -47.210938 42.75 -41.359375 C 45.988281 -35.503906 50.378906 -31 55.921875 -27.84375 C 61.472656 -24.6875 67.710938 -23.109375 74.640625 -23.109375 Z M 74.640625 -23.109375 "/></g></g></g><g fill="#00ffff" fill-opacity="1"><g transform="translate(-16.34945, 222.28884)"><g><path d="M 165.46875 -161.765625 L 165.46875 0 L 140.734375 0 L 51.53125 -109.53125 L 51.53125 0 L 21.71875 0 L 21.71875 -161.765625 L 46.453125 -161.765625 L 135.65625 -52.234375 L 135.65625 -161.765625 Z M 165.46875 -161.765625 "/></g></g></g><g fill="#00ffff" fill-opacity="1"><g transform="translate(150.013867, 222.28884)"><g><path d="M 134.953125 -61.015625 C 134.953125 -59.003906 134.800781 -56.148438 134.5 -52.453125 L 37.671875 -52.453125 C 39.359375 -43.367188 43.785156 -36.164062 50.953125 -30.84375 C 58.117188 -25.53125 67.015625 -22.875 77.640625 -22.875 C 91.203125 -22.875 102.375 -27.34375 111.15625 -36.28125 L 126.640625 -18.484375 C 121.085938 -11.859375 114.078125 -6.847656 105.609375 -3.453125 C 97.140625 -0.0664062 87.585938 1.625 76.953125 1.625 C 63.398438 1.625 51.460938 -1.070312 41.140625 -6.46875 C 30.816406 -11.863281 22.84375 -19.375 17.21875 -29 C 11.59375 -38.632812 8.78125 -49.535156 8.78125 -61.703125 C 8.78125 -73.722656 11.515625 -84.546875 16.984375 -94.171875 C 22.453125 -103.796875 30.039062 -111.304688 39.75 -116.703125 C 49.457031 -122.097656 60.394531 -124.796875 72.5625 -124.796875 C 84.582031 -124.796875 95.328125 -122.132812 104.796875 -116.8125 C 114.273438 -111.5 121.671875 -104.023438 126.984375 -94.390625 C 132.296875 -84.765625 134.953125 -73.640625 134.953125 -61.015625 Z M 72.5625 -101.6875 C 63.320312 -101.6875 55.503906 -98.953125 49.109375 -93.484375 C 42.710938 -88.015625 38.820312 -80.734375 37.4375 -71.640625 L 107.453125 -71.640625 C 106.222656 -80.578125 102.445312 -87.816406 96.125 -93.359375 C 89.8125 -98.910156 81.957031 -101.6875 72.5625 -101.6875 Z M 72.5625 -101.6875 "/></g></g></g><g fill="#00ffff" fill-opacity="1"><g transform="translate(272.93696, 222.28884)"><g><path d="M 74.40625 1.625 C 61.925781 1.625 50.679688 -1.070312 40.671875 -6.46875 C 30.660156 -11.863281 22.84375 -19.375 17.21875 -29 C 11.59375 -38.632812 8.78125 -49.535156 8.78125 -61.703125 C 8.78125 -73.867188 11.59375 -84.726562 17.21875 -94.28125 C 22.84375 -103.832031 30.660156 -111.304688 40.671875 -116.703125 C 50.679688 -122.097656 61.925781 -124.796875 74.40625 -124.796875 C 87.039062 -124.796875 98.363281 -122.097656 108.375 -116.703125 C 118.394531 -111.304688 126.21875 -103.832031 131.84375 -94.28125 C 137.46875 -84.726562 140.28125 -73.867188 140.28125 -61.703125 C 140.28125 -49.535156 137.46875 -38.632812 131.84375 -29 C 126.21875 -19.375 118.394531 -11.863281 108.375 -6.46875 C 98.363281 -1.070312 87.039062 1.625 74.40625 1.625 Z M 74.40625 -23.109375 C 85.039062 -23.109375 93.820312 -26.648438 100.75 -33.734375 C 107.6875 -40.828125 111.15625 -50.148438 111.15625 -61.703125 C 111.15625 -73.253906 107.6875 -82.570312 100.75 -89.65625 C 93.820312 -96.75 85.039062 -100.296875 74.40625 -100.296875 C 63.78125 -100.296875 55.039062 -96.75 48.1875 -89.65625 C 41.332031 -82.570312 37.90625 -73.253906 37.90625 -61.703125 C 37.90625 -50.148438 41.332031 -40.828125 48.1875 -33.734375 C 55.039062 -26.648438 63.78125 -23.109375 74.40625 -23.109375 Z M 74.40625 -23.109375 "/></g></g></g><g fill="#00ffff" fill-opacity="1"><g transform="translate(401.174539, 222.28884)"><g><path d="M 174.703125 -124.796875 C 190.265625 -124.796875 202.585938 -120.285156 211.671875 -111.265625 C 220.765625 -102.253906 225.3125 -88.738281 225.3125 -70.71875 L 225.3125 0 L 196.421875 0 L 196.421875 -67.015625 C 196.421875 -77.796875 194.035156 -85.921875 189.265625 -91.390625 C 184.492188 -96.859375 177.640625 -99.59375 168.703125 -99.59375 C 158.992188 -99.59375 151.210938 -96.394531 145.359375 -90 C 139.503906 -83.613281 136.578125 -74.488281 136.578125 -62.625 L 136.578125 0 L 107.6875 0 L 107.6875 -67.015625 C 107.6875 -77.796875 105.296875 -85.921875 100.515625 -91.390625 C 95.742188 -96.859375 88.890625 -99.59375 79.953125 -99.59375 C 70.097656 -99.59375 62.28125 -96.4375 56.5 -90.125 C 50.726562 -83.8125 47.84375 -74.644531 47.84375 -62.625 L 47.84375 0 L 18.953125 0 L 18.953125 -123.40625 L 46.453125 -123.40625 L 46.453125 -107.6875 C 51.066406 -113.238281 56.84375 -117.476562 63.78125 -120.40625 C 70.71875 -123.332031 78.421875 -124.796875 86.890625 -124.796875 C 96.128906 -124.796875 104.332031 -123.0625 111.5 -119.59375 C 118.664062 -116.125 124.328125 -111 128.484375 -104.21875 C 133.566406 -110.6875 140.113281 -115.734375 148.125 -119.359375 C 156.132812 -122.984375 164.992188 -124.796875 174.703125 -124.796875 Z M 174.703125 -124.796875 "/></g></g></g><g fill="#00ffff" fill-opacity="1"><g transform="translate(623.686614, 222.28884)"><g><path d="M 66.09375 -124.796875 C 84.269531 -124.796875 98.171875 -120.441406 107.796875 -111.734375 C 117.429688 -103.023438 122.25 -89.890625 122.25 -72.328125 L 122.25 0 L 94.984375 0 L 94.984375 -15.015625 C 91.441406 -9.628906 86.394531 -5.507812 79.84375 -2.65625 C 73.289062 0.195312 65.394531 1.625 56.15625 1.625 C 46.914062 1.625 38.828125 0.046875 31.890625 -3.109375 C 24.953125 -6.273438 19.597656 -10.671875 15.828125 -16.296875 C 12.054688 -21.921875 10.171875 -28.273438 10.171875 -35.359375 C 10.171875 -46.453125 14.289062 -55.347656 22.53125 -62.046875 C 30.769531 -68.742188 43.75 -72.09375 61.46875 -72.09375 L 93.359375 -72.09375 L 93.359375 -73.953125 C 93.359375 -82.578125 90.773438 -89.195312 85.609375 -93.8125 C 80.453125 -98.4375 72.789062 -100.75 62.625 -100.75 C 55.695312 -100.75 48.878906 -99.671875 42.171875 -97.515625 C 35.472656 -95.359375 29.8125 -92.359375 25.1875 -88.515625 L 13.859375 -109.53125 C 20.335938 -114.46875 28.117188 -118.242188 37.203125 -120.859375 C 46.296875 -123.484375 55.925781 -124.796875 66.09375 -124.796875 Z M 62.171875 -19.40625 C 69.410156 -19.40625 75.835938 -21.0625 81.453125 -24.375 C 87.078125 -27.6875 91.046875 -32.425781 93.359375 -38.59375 L 93.359375 -52.921875 L 63.546875 -52.921875 C 46.910156 -52.921875 38.59375 -47.453125 38.59375 -36.515625 C 38.59375 -31.273438 40.671875 -27.113281 44.828125 -24.03125 C 48.992188 -20.945312 54.773438 -19.40625 62.171875 -19.40625 Z M 62.171875 -19.40625 "/></g></g></g><g fill="#00ffff" fill-opacity="1"><g transform="translate(743.143672, 222.28884)"><g><path d="M 139.8125 -171.46875 L 139.8125 0 L 112.078125 0 L 112.078125 -15.953125 C 107.304688 -10.085938 101.414062 -5.691406 94.40625 -2.765625 C 87.394531 0.160156 79.648438 1.625 71.171875 1.625 C 59.304688 1.625 48.632812 -0.992188 39.15625 -6.234375 C 29.6875 -11.472656 22.253906 -18.90625 16.859375 -28.53125 C 11.472656 -38.164062 8.78125 -49.222656 8.78125 -61.703125 C 8.78125 -74.179688 11.472656 -85.195312 16.859375 -94.75 C 22.253906 -104.300781 29.6875 -111.695312 39.15625 -116.9375 C 48.632812 -122.175781 59.304688 -124.796875 71.171875 -124.796875 C 79.335938 -124.796875 86.8125 -123.40625 93.59375 -120.625 C 100.375 -117.851562 106.148438 -113.695312 110.921875 -108.15625 L 110.921875 -171.46875 Z M 74.640625 -23.109375 C 81.578125 -23.109375 87.816406 -24.6875 93.359375 -27.84375 C 98.910156 -31 103.300781 -35.503906 106.53125 -41.359375 C 109.769531 -47.210938 111.390625 -53.992188 111.390625 -61.703125 C 111.390625 -69.398438 109.769531 -76.175781 106.53125 -82.03125 C 103.300781 -87.882812 98.910156 -92.390625 93.359375 -95.546875 C 87.816406 -98.710938 81.578125 -100.296875 74.640625 -100.296875 C 67.710938 -100.296875 61.472656 -98.710938 55.921875 -95.546875 C 50.378906 -92.390625 45.988281 -87.882812 42.75 -82.03125 C 39.519531 -76.175781 37.90625 -69.398438 37.90625 -61.703125 C 37.90625 -53.992188 39.519531 -47.210938 42.75 -41.359375 C 45.988281 -35.503906 50.378906 -31 55.921875 -27.84375 C 61.472656 -24.6875 67.710938 -23.109375 74.640625 -23.109375 Z M 74.640625 -23.109375 "/></g></g></g><g fill="#ffffff" fill-opacity="1"><g transform="translate(-9.127476, 222.28884)"><g><path d="M 165.46875 -161.765625 L 165.46875 0 L 140.734375 0 L 51.53125 -109.53125 L 51.53125 0 L 21.71875 0 L 21.71875 -161.765625 L 46.453125 -161.765625 L 135.65625 -52.234375 L 135.65625 -161.765625 Z M 165.46875 -161.765625 "/></g></g></g><g fill="#ffffff" fill-opacity="1"><g transform="translate(157.235841, 222.28884)"><g><path d="M 134.953125 -61.015625 C 134.953125 -59.003906 134.800781 -56.148438 134.5 -52.453125 L 37.671875 -52.453125 C 39.359375 -43.367188 43.785156 -36.164062 50.953125 -30.84375 C 58.117188 -25.53125 67.015625 -22.875 77.640625 -22.875 C 91.203125 -22.875 102.375 -27.34375 111.15625 -36.28125 L 126.640625 -18.484375 C 121.085938 -11.859375 114.078125 -6.847656 105.609375 -3.453125 C 97.140625 -0.0664062 87.585938 1.625 76.953125 1.625 C 63.398438 1.625 51.460938 -1.070312 41.140625 -6.46875 C 30.816406 -11.863281 22.84375 -19.375 17.21875 -29 C 11.59375 -38.632812 8.78125 -49.535156 8.78125 -61.703125 C 8.78125 -73.722656 11.515625 -84.546875 16.984375 -94.171875 C 22.453125 -103.796875 30.039062 -111.304688 39.75 -116.703125 C 49.457031 -122.097656 60.394531 -124.796875 72.5625 -124.796875 C 84.582031 -124.796875 95.328125 -122.132812 104.796875 -116.8125 C 114.273438 -111.5 121.671875 -104.023438 126.984375 -94.390625 C 132.296875 -84.765625 134.953125 -73.640625 134.953125 -61.015625 Z M 72.5625 -101.6875 C 63.320312 -101.6875 55.503906 -98.953125 49.109375 -93.484375 C 42.710938 -88.015625 38.820312 -80.734375 37.4375 -71.640625 L 107.453125 -71.640625 C 106.222656 -80.578125 102.445312 -87.816406 96.125 -93.359375 C 89.8125 -98.910156 81.957031 -101.6875 72.5625 -101.6875 Z M 72.5625 -101.6875 "/></g></g></g><g fill="#ffffff" fill-opacity="1"><g transform="translate(280.158935, 222.28884)"><g><path d="M 74.40625 1.625 C 61.925781 1.625 50.679688 -1.070312 40.671875 -6.46875 C 30.660156 -11.863281 22.84375 -19.375 17.21875 -29 C 11.59375 -38.632812 8.78125 -49.535156 8.78125 -61.703125 C 8.78125 -73.867188 11.59375 -84.726562 17.21875 -94.28125 C 22.84375 -103.832031 30.660156 -111.304688 40.671875 -116.703125 C 50.679688 -122.097656 61.925781 -124.796875 74.40625 -124.796875 C 87.039062 -124.796875 98.363281 -122.097656 108.375 -116.703125 C 118.394531 -111.304688 126.21875 -103.832031 131.84375 -94.28125 C 137.46875 -84.726562 140.28125 -73.867188 140.28125 -61.703125 C 140.28125 -49.535156 137.46875 -38.632812 131.84375 -29 C 126.21875 -19.375 118.394531 -11.863281 108.375 -6.46875 C 98.363281 -1.070312 87.039062 1.625 74.40625 1.625 Z M 74.40625 -23.109375 C 85.039062 -23.109375 93.820312 -26.648438 100.75 -33.734375 C 107.6875 -40.828125 111.15625 -50.148438 111.15625 -61.703125 C 111.15625 -73.253906 107.6875 -82.570312 100.75 -89.65625 C 93.820312 -96.75 85.039062 -100.296875 74.40625 -100.296875 C 63.78125 -100.296875 55.039062 -96.75 48.1875 -89.65625 C 41.332031 -82.570312 37.90625 -73.253906 37.90625 -61.703125 C 37.90625 -50.148438 41.332031 -40.828125 48.1875 -33.734375 C 55.039062 -26.648438 63.78125 -23.109375 74.40625 -23.109375 Z M 74.40625 -23.109375 "/></g></g></g><g fill="#ffffff" fill-opacity="1"><g transform="translate(408.396514, 222.28884)"><g><path d="M 174.703125 -124.796875 C 190.265625 -124.796875 202.585938 -120.285156 211.671875 -111.265625 C 220.765625 -102.253906 225.3125 -88.738281 225.3125 -70.71875 L 225.3125 0 L 196.421875 0 L 196.421875 -67.015625 C 196.421875 -77.796875 194.035156 -85.921875 189.265625 -91.390625 C 184.492188 -96.859375 177.640625 -99.59375 168.703125 -99.59375 C 158.992188 -99.59375 151.210938 -96.394531 145.359375 -90 C 139.503906 -83.613281 136.578125 -74.488281 136.578125 -62.625 L 136.578125 0 L 107.6875 0 L 107.6875 -67.015625 C 107.6875 -77.796875 105.296875 -85.921875 100.515625 -91.390625 C 95.742188 -96.859375 88.890625 -99.59375 79.953125 -99.59375 C 70.097656 -99.59375 62.28125 -96.4375 56.5 -90.125 C 50.726562 -83.8125 47.84375 -74.644531 47.84375 -62.625 L 47.84375 0 L 18.953125 0 L 18.953125 -123.40625 L 46.453125 -123.40625 L 46.453125 -107.6875 C 51.066406 -113.238281 56.84375 -117.476562 63.78125 -120.40625 C 70.71875 -123.332031 78.421875 -124.796875 86.890625 -124.796875 C 96.128906 -124.796875 104.332031 -123.0625 111.5 -119.59375 C 118.664062 -116.125 124.328125 -111 128.484375 -104.21875 C 133.566406 -110.6875 140.113281 -115.734375 148.125 -119.359375 C 156.132812 -122.984375 164.992188 -124.796875 174.703125 -124.796875 Z M 174.703125 -124.796875 "/></g></g></g><g fill="#ffffff" fill-opacity="1"><g transform="translate(630.908589, 222.28884)"><g><path d="M 66.09375 -124.796875 C 84.269531 -124.796875 98.171875 -120.441406 107.796875 -111.734375 C 117.429688 -103.023438 122.25 -89.890625 122.25 -72.328125 L 122.25 0 L 94.984375 0 L 94.984375 -15.015625 C 91.441406 -9.628906 86.394531 -5.507812 79.84375 -2.65625 C 73.289062 0.195312 65.394531 1.625 56.15625 1.625 C 46.914062 1.625 38.828125 0.046875 31.890625 -3.109375 C 24.953125 -6.273438 19.597656 -10.671875 15.828125 -16.296875 C 12.054688 -21.921875 10.171875 -28.273438 10.171875 -35.359375 C 10.171875 -46.453125 14.289062 -55.347656 22.53125 -62.046875 C 30.769531 -68.742188 43.75 -72.09375 61.46875 -72.09375 L 93.359375 -72.09375 L 93.359375 -73.953125 C 93.359375 -82.578125 90.773438 -89.195312 85.609375 -93.8125 C 80.453125 -98.4375 72.789062 -100.75 62.625 -100.75 C 55.695312 -100.75 48.878906 -99.671875 42.171875 -97.515625 C 35.472656 -95.359375 29.8125 -92.359375 25.1875 -88.515625 L 13.859375 -109.53125 C 20.335938 -114.46875 28.117188 -118.242188 37.203125 -120.859375 C 46.296875 -123.484375 55.925781 -124.796875 66.09375 -124.796875 Z M 62.171875 -19.40625 C 69.410156 -19.40625 75.835938 -21.0625 81.453125 -24.375 C 87.078125 -27.6875 91.046875 -32.425781 93.359375 -38.59375 L 93.359375 -52.921875 L 63.546875 -52.921875 C 46.910156 -52.921875 38.59375 -47.453125 38.59375 -36.515625 C 38.59375 -31.273438 40.671875 -27.113281 44.828125 -24.03125 C 48.992188 -20.945312 54.773438 -19.40625 62.171875 -19.40625 Z M 62.171875 -19.40625 "/></g></g></g><g fill="#ffffff" fill-opacity="1"><g transform="translate(750.365646, 222.28884)"><g><path d="M 139.8125 -171.46875 L 139.8125 0 L 112.078125 0 L 112.078125 -15.953125 C 107.304688 -10.085938 101.414062 -5.691406 94.40625 -2.765625 C 87.394531 0.160156 79.648438 1.625 71.171875 1.625 C 59.304688 1.625 48.632812 -0.992188 39.15625 -6.234375 C 29.6875 -11.472656 22.253906 -18.90625 16.859375 -28.53125 C 11.472656 -38.164062 8.78125 -49.222656 8.78125 -61.703125 C 8.78125 -74.179688 11.472656 -85.195312 16.859375 -94.75 C 22.253906 -104.300781 29.6875 -111.695312 39.15625 -116.9375 C 48.632812 -122.175781 59.304688 -124.796875 71.171875 -124.796875 C 79.335938 -124.796875 86.8125 -123.40625 93.59375 -120.625 C 100.375 -117.851562 106.148438 -113.695312 110.921875 -108.15625 L 110.921875 -171.46875 Z M 74.640625 -23.109375 C 81.578125 -23.109375 87.816406 -24.6875 93.359375 -27.84375 C 98.910156 -31 103.300781 -35.503906 106.53125 -41.359375 C 109.769531 -47.210938 111.390625 -53.992188 111.390625 -61.703125 C 111.390625 -69.398438 109.769531 -76.175781 106.53125 -82.03125 C 103.300781 -87.882812 98.910156 -92.390625 93.359375 -95.546875 C 87.816406 -98.710938 81.578125 -100.296875 74.640625 -100.296875 C 67.710938 -100.296875 61.472656 -98.710938 55.921875 -95.546875 C 50.378906 -92.390625 45.988281 -87.882812 42.75 -82.03125 C 39.519531 -76.175781 37.90625 -69.398438 37.90625 -61.703125 C 37.90625 -53.992188 39.519531 -47.210938 42.75 -41.359375 C 45.988281 -35.503906 50.378906 -31 55.921875 -27.84375 C 61.472656 -24.6875 67.710938 -23.109375 74.640625 -23.109375 Z M 74.640625 -23.109375 "/></g></g></g></svg>