<svg xmlns="http://www.w3.org/2000/svg" xmlns:xlink="http://www.w3.org/1999/xlink" width="700" zoomAndPan="magnify" viewBox="0 0 525 89.999999" height="120" preserveAspectRatio="xMidYMid meet" version="1.0"><defs><g/></defs><g fill="#ffffff" fill-opacity="1"><g transform="translate(6.103036, 72.692503)"><g><path d="M 29.921875 -18.65625 L 29.921875 0 L 20.09375 0 L 20.09375 -18.515625 L -0.6875 -52.890625 L 9.828125 -52.890625 L 25.3125 -27.125 L 40.953125 -52.890625 L 50.625 -52.890625 Z M 29.921875 -18.65625 "/></g></g></g><g fill="#ffffff" fill-opacity="1"><g transform="translate(49.239753, 72.692503)"><g/></g></g><g fill="#ffffff" fill-opacity="1"><g transform="translate(63.293223, 72.692503)"><g/></g></g><g fill="#ffffff" fill-opacity="1"><g transform="translate(77.341314, 72.692503)"><g><path d="M 31.578125 0.75 C 26.242188 0.75 21.421875 -0.414062 17.109375 -2.75 C 12.804688 -5.09375 9.429688 -8.328125 6.984375 -12.453125 C 4.546875 -16.585938 3.328125 -21.253906 3.328125 -26.453125 C 3.328125 -31.640625 4.5625 -36.296875 7.03125 -40.421875 C 9.5 -44.554688 12.882812 -47.796875 17.1875 -50.140625 C 21.5 -52.484375 26.320312 -53.65625 31.65625 -53.65625 C 35.988281 -53.65625 39.941406 -52.894531 43.515625 -51.375 C 47.097656 -49.863281 50.125 -47.675781 52.59375 -44.8125 L 46.25 -38.84375 C 42.414062 -42.96875 37.703125 -45.03125 32.109375 -45.03125 C 28.484375 -45.03125 25.234375 -44.238281 22.359375 -42.65625 C 19.492188 -41.070312 17.253906 -38.867188 15.640625 -36.046875 C 14.023438 -33.222656 13.21875 -30.023438 13.21875 -26.453125 C 13.21875 -22.867188 14.023438 -19.664062 15.640625 -16.84375 C 17.253906 -14.03125 19.492188 -11.828125 22.359375 -10.234375 C 25.234375 -8.648438 28.484375 -7.859375 32.109375 -7.859375 C 37.703125 -7.859375 42.414062 -9.945312 46.25 -14.125 L 52.59375 -8.078125 C 50.125 -5.210938 47.085938 -3.023438 43.484375 -1.515625 C 39.878906 -0.00390625 35.910156 0.75 31.578125 0.75 Z M 31.578125 0.75 "/></g></g></g><g fill="#ffffff" fill-opacity="1"><g transform="translate(125.473456, 72.692503)"><g><path d="M 31.8125 0.75 C 26.425781 0.75 21.566406 -0.414062 17.234375 -2.75 C 12.898438 -5.09375 9.5 -8.34375 7.03125 -12.5 C 4.5625 -16.65625 3.328125 -21.304688 3.328125 -26.453125 C 3.328125 -31.585938 4.5625 -36.234375 7.03125 -40.390625 C 9.5 -44.546875 12.898438 -47.796875 17.234375 -50.140625 C 21.566406 -52.484375 26.425781 -53.65625 31.8125 -53.65625 C 37.195312 -53.65625 42.054688 -52.484375 46.390625 -50.140625 C 50.722656 -47.796875 54.125 -44.554688 56.59375 -40.421875 C 59.0625 -36.296875 60.296875 -31.640625 60.296875 -26.453125 C 60.296875 -21.253906 59.0625 -16.585938 56.59375 -12.453125 C 54.125 -8.328125 50.722656 -5.09375 46.390625 -2.75 C 42.054688 -0.414062 37.195312 0.75 31.8125 0.75 Z M 31.8125 -7.859375 C 35.332031 -7.859375 38.503906 -8.648438 41.328125 -10.234375 C 44.148438 -11.828125 46.367188 -14.046875 47.984375 -16.890625 C 49.597656 -19.734375 50.40625 -22.921875 50.40625 -26.453125 C 50.40625 -29.972656 49.597656 -33.15625 47.984375 -36 C 46.367188 -38.851562 44.148438 -41.070312 41.328125 -42.65625 C 38.503906 -44.238281 35.332031 -45.03125 31.8125 -45.03125 C 28.28125 -45.03125 25.101562 -44.238281 22.28125 -42.65625 C 19.46875 -41.070312 17.253906 -38.851562 15.640625 -36 C 14.023438 -33.15625 13.21875 -29.972656 13.21875 -26.453125 C 13.21875 -22.921875 14.023438 -19.734375 15.640625 -16.890625 C 17.253906 -14.046875 19.46875 -11.828125 22.28125 -10.234375 C 25.101562 -8.648438 28.28125 -7.859375 31.8125 -7.859375 Z M 31.8125 -7.859375 "/></g></g></g><g fill="#ffffff" fill-opacity="1"><g transform="translate(182.295291, 72.692503)"><g><path d="M 55.6875 0 L 55.609375 -35.0625 L 38.234375 -6.046875 L 33.859375 -6.046875 L 16.46875 -34.609375 L 16.46875 0 L 7.109375 0 L 7.109375 -52.890625 L 15.1875 -52.890625 L 36.1875 -17.828125 L 56.828125 -52.890625 L 64.90625 -52.890625 L 64.984375 0 Z M 55.6875 0 "/></g></g></g><g fill="#ffffff" fill-opacity="1"><g transform="translate(247.655677, 72.692503)"><g><path d="M 55.6875 0 L 55.609375 -35.0625 L 38.234375 -6.046875 L 33.859375 -6.046875 L 16.46875 -34.609375 L 16.46875 0 L 7.109375 0 L 7.109375 -52.890625 L 15.1875 -52.890625 L 36.1875 -17.828125 L 56.828125 -52.890625 L 64.90625 -52.890625 L 64.984375 0 Z M 55.6875 0 "/></g></g></g><g fill="#ffffff" fill-opacity="1"><g transform="translate(313.016075, 72.692503)"><g><path d="M 23.5 0.75 C 19.414062 0.75 15.472656 0.171875 11.671875 -0.984375 C 7.867188 -2.140625 4.859375 -3.675781 2.640625 -5.59375 L 6.046875 -13.21875 C 8.210938 -11.507812 10.867188 -10.113281 14.015625 -9.03125 C 17.160156 -7.945312 20.320312 -7.40625 23.5 -7.40625 C 27.425781 -7.40625 30.359375 -8.035156 32.296875 -9.296875 C 34.242188 -10.554688 35.21875 -12.21875 35.21875 -14.28125 C 35.21875 -15.789062 34.675781 -17.035156 33.59375 -18.015625 C 32.507812 -19.003906 31.132812 -19.773438 29.46875 -20.328125 C 27.800781 -20.878906 25.535156 -21.507812 22.671875 -22.21875 C 18.640625 -23.175781 15.375 -24.128906 12.875 -25.078125 C 10.382812 -26.035156 8.242188 -27.535156 6.453125 -29.578125 C 4.671875 -31.617188 3.78125 -34.378906 3.78125 -37.859375 C 3.78125 -40.773438 4.570312 -43.429688 6.15625 -45.828125 C 7.738281 -48.222656 10.128906 -50.125 13.328125 -51.53125 C 16.535156 -52.945312 20.457031 -53.65625 25.09375 -53.65625 C 28.3125 -53.65625 31.484375 -53.25 34.609375 -52.4375 C 37.734375 -51.632812 40.425781 -50.476562 42.6875 -48.96875 L 39.59375 -41.328125 C 37.28125 -42.691406 34.863281 -43.722656 32.34375 -44.421875 C 29.820312 -45.128906 27.378906 -45.484375 25.015625 -45.484375 C 21.128906 -45.484375 18.242188 -44.828125 16.359375 -43.515625 C 14.472656 -42.210938 13.53125 -40.476562 13.53125 -38.3125 C 13.53125 -36.800781 14.070312 -35.566406 15.15625 -34.609375 C 16.238281 -33.648438 17.609375 -32.894531 19.265625 -32.34375 C 20.929688 -31.789062 23.195312 -31.160156 26.0625 -30.453125 C 30 -29.546875 33.222656 -28.597656 35.734375 -27.609375 C 38.253906 -26.628906 40.410156 -25.128906 42.203125 -23.109375 C 43.992188 -21.097656 44.890625 -18.382812 44.890625 -14.96875 C 44.890625 -12.039062 44.09375 -9.390625 42.5 -7.015625 C 40.914062 -4.648438 38.507812 -2.765625 35.28125 -1.359375 C 32.0625 0.046875 28.132812 0.75 23.5 0.75 Z M 23.5 0.75 "/></g></g></g></svg>